# xmcd CD database file
#
# Track frame offsets:
#	150
#	20236
#	36382
#	54719
#	75536
#	90896
#	104619
#	121317
#	134489
#	154138
#	170879
#	188361
#	208346
#	224959
#	245027
#
# Disc length: 3441 seconds
#
# Revision: 2
# Processed by: cddbd v1.5.1PL2 Copyright (c) Steve Scherf et al.
# Submitted via: CDex 1.51
#
DISCID=e50d6f0f
DTITLE=Salsamérica - Olinda-Havana
DYEAR=2006
DGENRE=Salsa
TTITLE0=Upi Tipi Tipi
TTITLE1=Linda Cubana
TTITLE2=Ran-Can-Can
TTITLE3=Sin Señor
TTITLE4=La Bomba
TTITLE5=Y Ahora Tú
TTITLE6=Colegiala
TTITLE7=Mentirosa
TTITLE8=Carnaval
TTITLE9=El Carretero
TTITLE10=Lola
TTITLE11=Mi Tierra
TTITLE12=Woman Del Callao
TTITLE13=Suavemente
TTITLE14=Por Arriba Por Abajo
EXTD=YEAR: 2006
EXTT0=
EXTT1=
EXTT2=
EXTT3=
EXTT4=
EXTT5=
EXTT6=
EXTT7=
EXTT8=
EXTT9=
EXTT10=
EXTT11=
EXTT12=
EXTT13=
EXTT14=
PLAYORDER=
